<?xml version="1.0" encoding="utf-8"?>
<!-- Generator: Adobe Illustrator 28.0.0, SVG Export Plug-In . SVG Version: 6.00 Build 0)  -->
<svg version="1.1" xmlns="http://www.w3.org/2000/svg" xmlns:xlink="http://www.w3.org/1999/xlink" x="0px" y="0px"
	 viewBox="0 0 841.9 595.3" style="enable-background:new 0 0 841.9 595.3;" xml:space="preserve">
<style type="text/css">
	.st0{fill:#F8AF42;}
	.st1{fill:#1998A5;}
	.st2{display:none;}
	.st3{display:inline;}
	.st4{fill:none;stroke:#009640;stroke-miterlimit:10;}
</style>
<g id="Calque_1">
	<g>
		<path class="st0" d="M350.3,229.1L350.3,229.1l0-126.6c0-28.3,22.4-52,50.7-52.6c29-0.5,52.7,22.9,52.7,51.7h-25
			c0-15-12.4-27.2-27.6-26.7c-14.6,0.4-26,12.8-26,27.3l0,102C375.3,217.9,364.1,229.1,350.3,229.1z"/>
		<path class="st1" d="M403,300.4c-29,0.5-52.7-22.9-52.7-51.7h25c0,15,12.4,27.2,27.6,26.7c14.6-0.4,25.9-12.8,25.9-27.3v-102
			c0-13.8,11.2-25,25-25h0v126.6C453.8,276.1,431.4,299.9,403,300.4z"/>
		<circle class="st0" cx="338.2" cy="64.1" r="14.2"/>
		<circle class="st1" cx="467.5" cy="286.2" r="14.2"/>
		<rect x="324.4" y="121.2" class="st1" width="78.4" height="25"/>
		<rect x="402.9" y="204.1" class="st0" width="78.3" height="25"/>
	</g>
	<g>
		<path class="st1" d="M186.1,328.8c29-0.5,52.7,22.9,52.7,51.7h-25c0-15-12.4-27.2-27.6-26.7c-14.6,0.4-25.9,12.8-25.9,27.3v102
			c0,13.8-11.2,25-25,25h0V381.3C135.4,353,157.8,329.3,186.1,328.8z"/>
		<rect x="108.9" y="400.1" class="st0" width="76.5" height="25"/>
		<g>
			<path class="st1" d="M171.4,467.8c0-22.3,13.4-43.8,39.5-43.8c16.1,0,26.9,7.8,26.9,24.1c0,21.6-22.9,26.7-39.1,27.7
				c-0.6,0-1.1,0.6-0.9,1.2c1.4,6.1,6.2,11.3,15,11.3c6.9,0,13.2-2.9,17.9-5.9c0.6-0.4,1.3-0.1,1.5,0.5v0c4.1,10.1-2,21.5-12.7,23.5
				c-3.2,0.6-6.6,1-10.4,1C182.2,507.5,171.4,491.2,171.4,467.8z M212.6,454.5c6.1-5.3-1-15.1-8.2-11.3c-4.5,2.3-7.3,8-7.8,15.4
				c0,0.6,0.5,1.2,1.1,1.1C202.9,459.3,209,457.6,212.6,454.5z"/>
			<path class="st1" d="M248.4,477.2v-78c0-0.6,0.5-1,1-1H273c0.6,0,1,0.5,1,1v78c0,6.9,1.8,10.1,6.8,10.1c2.1,0,4.8-0.7,7.9-2
				c0.6-0.2,1.2,0,1.4,0.6l0,0c3.4,10.4-4.2,21.2-15.2,21.5c-0.4,0-0.8,0-1.1,0C249.9,507.5,248.4,491.9,248.4,477.2z"/>
			<path class="st1" d="M300.2,477.2v-78c0-0.6,0.5-1,1-1h23.6c0.6,0,1,0.5,1,1v78c0,6.9,1.8,10.1,6.8,10.1c2.1,0,4.8-0.7,7.9-2
				c0.6-0.2,1.2,0,1.4,0.6l0,0c3.4,10.4-4.2,21.2-15.2,21.5c-0.4,0-0.8,0-1.1,0C301.7,507.5,300.2,491.9,300.2,477.2z"/>
			<path class="st1" d="M348.4,466.3c0-32.3,21.1-42.3,37.8-42.3c12.1,0,35.8,3.7,35.8,39.8c0,28.9-16.9,43.6-38.1,43.6
				C362.1,507.5,348.4,494.2,348.4,466.3z M395.6,466.1c0-15.7-2.6-23.7-10.4-23.7c-7.2,0-10.4,8.3-10.4,20.9
				c0,13.4,1.2,25.4,10.4,25.4C392.7,488.7,395.6,481.2,395.6,466.1z"/>
			<path class="st1" d="M543.8,468.7c0-27,14.1-45.2,41.6-45.2c5.3,0,16.9,1.3,29,5.9c0.4,0.2,0.7,0.6,0.7,1v57.5c0,0,0,0.1,0,0.1
				l-0.2,17.8c0.1,0.6-0.4,1.1-1,1.1l-11.4,0c-4.2,0-7.8-5.5-8.5-9.7l0,0l-0.8-0.2c-4.1,6-10.4,9.8-19.2,9.8
				C550.2,507,543.8,488.5,543.8,468.7z M589.7,479.8l0-36.3c0-0.4-0.3-0.8-0.7-1c-1.8-0.6-4-1-6.4-1c-10.1,0-13.5,12.1-13.5,25.4
				c0,11.8,2.1,21.7,11.1,21.7C586.2,488.5,589.7,484.2,589.7,479.8z"/>
			<path class="st1" d="M634.6,524.2c0-9.8,4.9-17.8,13.5-24.8c0.7-0.6,0.4-1.6-0.4-1.8c-11.6-2.9-17-10.3-17-24V427
				c0-0.6,0.5-1,1-1h23.6c0.6,0,1,0.5,1,1v45.4c0,6.9,0.6,11.4,8,11.4c4.3,0,8.8-4,8.8-10.5V427c0-0.6,0.5-1,1-1h0
				c13.7,0,24.8,11.1,24.8,24.8v36.5c0,4.1-0.3,16.8-0.9,21.4c-1.8,23.7-14,36.7-36.6,36.7C643.7,545.4,634.6,537.3,634.6,524.2z
				 M673.7,512.2v-13.3c0-0.8-0.9-1.3-1.6-0.9c-7.6,4.5-15.2,11.6-15.2,21.4c0,5.2,2.8,7.5,7.4,7.5
				C671.2,527,673.7,521.7,673.7,512.2z"/>
		</g>
		<path class="st1" d="M429.5,480.6v-65h25.2v63.2c0,5.9,0.6,10,6.3,10c4.8,0,8-4.1,8-9.7v-50.3H494v50c0,5.4,0.3,10,6,10
			c8.2,0,10.1-12.5,10.1-24.9c0-3.8,0.3-11.5,0.6-15.6c2.3-28.4,39.8-22.1,39.8-22.1c-11,8.2-16,18.7-15.6,40.5
			c1.3,30.1-11.3,41.3-34,41.3c-11.2,0-16.9-4.4-20.7-10.4c-6.2,7.4-13.9,10.4-23.4,10.4C439.3,508,429.5,499.1,429.5,480.6z"/>
	</g>
</g>
<g id="Calque_3">
</g>
<g id="Règle" class="st2">
</g>
</svg>
