<?xml version="1.0"?>
<svg width="400" height="600" xmlns="http://www.w3.org/2000/svg" xmlns:svg="http://www.w3.org/2000/svg" enable-background="new 0 0 841.9 595.3" version="1.1" xml:space="preserve">
 <style type="text/css">.st0{fill:#F8AF42;}
	.st1{fill:#1998A5;}
	.st2{display:none;}
	.st3{display:inline;}
	.st4{fill:none;stroke:#009640;stroke-miterlimit:10;}</style>

 <g class="layer">
  <title>Layer 1</title>
  <g id="svg_1">
   <path class="st0" d="m82.32,422.68l0,0l0,-285.55c0,-63.83 50.52,-117.29 114.36,-118.64c65.41,-1.13 118.87,51.65 118.87,116.61l-56.39,0c0,-33.83 -27.97,-61.35 -62.25,-60.22c-32.93,0.9 -58.64,28.87 -58.64,61.58l0,230.07c0.45,30.9 -24.81,56.16 -55.94,56.16l-0.01,-0.01z" id="svg_2"/>
   <path class="st1" d="m201.19,583.5c-65.41,1.13 -118.87,-51.65 -118.87,-116.61l56.39,0c0,33.83 27.97,61.35 62.25,60.22c32.93,-0.9 58.42,-28.87 58.42,-61.58l0,-230.07c0,-31.13 25.26,-56.39 56.39,-56.39l0,0l0,285.55c-0.23,64.06 -50.75,117.51 -114.58,118.87l0,0.01z" id="svg_3"/>
   <circle class="st0" cx="55.03" cy="50.28" id="svg_4" r="32.03"/>
   <circle class="st1" cx="346.67" cy="551.47" id="svg_5" r="32.03"/>
   <rect class="st1" height="56.39" id="svg_6" width="176.83" x="23.9" y="179.3"/>
   <rect class="st0" height="56.39" id="svg_7" width="176.61" x="200.74" y="366.29"/>
  </g>
  <g id="Calque_3"/>
  <g class="st2" id="Règle">
   <g class="st3" id="svg_8">
    <line class="st4" id="svg_9" x1="424.9" x2="424.9" y1="121.5" y2="480.6"/>
    <line class="st4" id="svg_10" x1="267.3" x2="626.4" y1="334.9" y2="334.9"/>
    <line class="st4" id="svg_11" x1="268.6" x2="627.7" y1="225.9" y2="225.9"/>
    <rect class="st4" height="250.5" id="svg_12" width="78.9" x="424.9" y="155.2"/>
    <rect class="st4" height="250.5" id="svg_13" width="78.9" x="346.1" y="155.2"/>
   </g>
  </g>
 </g>
</svg>