<?xml version="1.0" encoding="UTF-8"?>
<svg id="Calque_1" data-name="Calque 1" xmlns="http://www.w3.org/2000/svg" viewBox="0 0 192 192">
  <defs>
    <style>
      .cls-1 {
        fill: #f7ad40;
      }

      .cls-1, .cls-2 {
        stroke-width: 0px;
      }

      .cls-2 {
        fill: #1895a2;
      }
    </style>
  </defs>
  <path class="cls-1" d="M71.38,121.48h0v-59.8c0-13.37,10.5-24.57,23.77-24.82,13.58-.26,24.71,10.79,24.71,24.41h-11.7c0-7.09-5.83-12.84-12.92-12.63-6.82.2-12.16,6.02-12.16,12.9v48.16c0,6.51-5.24,11.78-11.7,11.78"/>
  <path class="cls-2" d="M96.08,155.15c-13.58.26-24.71-10.79-24.71-24.41h11.7c0,7.1,5.83,12.84,12.92,12.63,6.82-.2,12.16-6.02,12.16-12.9v-48.16c0-6.51,5.24-11.78,11.7-11.78v59.8c0,13.37-10.5,24.57-23.77,24.82"/>
  <path class="cls-1" d="M72.33,43.55c0,3.7-2.98,6.7-6.65,6.7s-6.65-3-6.65-6.7,2.98-6.7,6.65-6.7,6.65,3,6.65,6.7"/>
  <path class="cls-2" d="M132.97,148.45c0,3.7-2.98,6.7-6.65,6.7s-6.65-3-6.65-6.7,2.98-6.7,6.65-6.7,6.65,3,6.65,6.7"/>
  <rect class="cls-2" x="59.24" y="70.52" width="36.76" height="11.81"/>
  <rect class="cls-1" x="96" y="109.67" width="36.91" height="11.81"/>
</svg>