<svg xmlns="http://www.w3.org/2000/svg" xmlns:xlink="http://www.w3.org/1999/xlink" version="1.1" width="1000" height="1000" viewBox="0 0 1000 1000" xml:space="preserve">
<desc>Created with Fabric.js 3.5.0</desc>
<defs>
</defs>
<rect x="0" y="0" width="100%" height="100%" fill="#ffffff"/>
<g transform="matrix(3.0817 0 0 3.0817 500.0117 551.0083)" id="15648">
<g style="" vector-effect="non-scaling-stroke">
		<g transform="matrix(1 0 0 1 3.15 -52.854)" id="Calque_1">
<path style="stroke: none; stroke-width: 1; stroke-dasharray: none; stroke-linecap: butt; stroke-dashoffset: 0; stroke-linejoin: miter; stroke-miterlimit: 4; is-custom-font: none; font-file-url: none; fill: rgb(248,175,66); fill-rule: nonzero; opacity: 1;" transform=" translate(-424.1, -244.7961)" d="M 372.4 334.4 L 372.4 334.4 l 0 -126.6 c 0 -28.3 22.4 -52 50.7 -52.6 c 29 -0.5 52.7 22.9 52.7 51.7 h -25 c 0 -15 -12.4 -27.2 -27.6 -26.7 c -14.6 0.4 -26 12.8 -26 27.3 v 102 C 397.4 323.2 386.2 334.4 372.4 334.4 z" stroke-linecap="round"/>
</g>
		<g transform="matrix(1 0 0 1 3.2 18.4039)" id="Calque_1">
<path style="stroke: none; stroke-width: 1; stroke-dasharray: none; stroke-linecap: butt; stroke-dashoffset: 0; stroke-linejoin: miter; stroke-miterlimit: 4; is-custom-font: none; font-file-url: none; fill: rgb(25,152,165); fill-rule: nonzero; opacity: 1;" transform=" translate(-424.15, -316.0539)" d="M 425.1 405.7 c -29 0.5 -52.7 -22.9 -52.7 -51.7 h 25 c 0 15 12.4 27.2 27.6 26.7 c 14.6 -0.4 25.9 -12.8 25.9 -27.3 v -102 c 0 -13.8 11.2 -25 25 -25 l 0 0 v 126.6 C 475.8 381.4 453.4 405.1 425.1 405.7 z" stroke-linecap="round"/>
</g>
		<g transform="matrix(1 0 0 1 -60.65 -128.35)" id="Calque_1">
<circle style="stroke: none; stroke-width: 1; stroke-dasharray: none; stroke-linecap: butt; stroke-dashoffset: 0; stroke-linejoin: miter; stroke-miterlimit: 4; is-custom-font: none; font-file-url: none; fill: rgb(248,175,66); fill-rule: nonzero; opacity: 1;" cx="0" cy="0" r="14.2"/>
</g>
		<g transform="matrix(1 0 0 1 68.65 93.85)" id="Calque_1">
<circle style="stroke: none; stroke-width: 1; stroke-dasharray: none; stroke-linecap: butt; stroke-dashoffset: 0; stroke-linejoin: miter; stroke-miterlimit: 4; is-custom-font: none; font-file-url: none; fill: rgb(25,152,165); fill-rule: nonzero; opacity: 1;" cx="0" cy="0" r="14.2"/>
</g>
		<g transform="matrix(1 0 0 1 -35.25 -58.65)" id="Calque_1">
<rect style="stroke: none; stroke-width: 1; stroke-dasharray: none; stroke-linecap: butt; stroke-dashoffset: 0; stroke-linejoin: miter; stroke-miterlimit: 4; is-custom-font: none; font-file-url: none; fill: rgb(25,152,165); fill-rule: nonzero; opacity: 1;" x="-39.2" y="-12.5" rx="0" ry="0" width="78.4" height="25"/>
</g>
		<g transform="matrix(1 0 0 1 43.1 24.25)" id="Calque_1">
<rect style="stroke: none; stroke-width: 1; stroke-dasharray: none; stroke-linecap: butt; stroke-dashoffset: 0; stroke-linejoin: miter; stroke-miterlimit: 4; is-custom-font: none; font-file-url: none; fill: rgb(248,175,66); fill-rule: nonzero; opacity: 1;" x="-39.15" y="-12.5" rx="0" ry="0" width="78.3" height="25"/>
</g>
		<g transform="matrix(1 0 0 1 3.95 3.4)" id="R&#xe8;gle">
<line style="stroke: rgb(0,150,64); stroke-width: 1; stroke-dasharray: none; stroke-linecap: butt; stroke-dashoffset: 0; stroke-linejoin: miter; stroke-miterlimit: 10; is-custom-font: none; font-file-url: none; fill: none; fill-rule: nonzero; opacity: 1; visibility: hidden;" x1="0" y1="-179.55" x2="0" y2="179.55"/>
</g>
		<g transform="matrix(1 0 0 1 25.9 37.25)" id="R&#xe8;gle">
<line style="stroke: rgb(0,150,64); stroke-width: 1; stroke-dasharray: none; stroke-linecap: butt; stroke-dashoffset: 0; stroke-linejoin: miter; stroke-miterlimit: 10; is-custom-font: none; font-file-url: none; fill: none; fill-rule: nonzero; opacity: 1; visibility: hidden;" x1="-179.54999999999998" y1="0" x2="179.54999999999998" y2="0"/>
</g>
		<g transform="matrix(1 0 0 1 27.2 -71.75)" id="R&#xe8;gle">
<line style="stroke: rgb(0,150,64); stroke-width: 1; stroke-dasharray: none; stroke-linecap: butt; stroke-dashoffset: 0; stroke-linejoin: miter; stroke-miterlimit: 10; is-custom-font: none; font-file-url: none; fill: none; fill-rule: nonzero; opacity: 1; visibility: hidden;" x1="-179.55" y1="0" x2="179.55" y2="0"/>
</g>
		<g transform="matrix(1 0 0 1 43.4 -17.2)" id="R&#xe8;gle">
<rect style="stroke: rgb(0,150,64); stroke-width: 1; stroke-dasharray: none; stroke-linecap: butt; stroke-dashoffset: 0; stroke-linejoin: miter; stroke-miterlimit: 10; is-custom-font: none; font-file-url: none; fill: none; fill-rule: nonzero; opacity: 1; visibility: hidden;" x="-39.45" y="-125.25" rx="0" ry="0" width="78.9" height="250.5"/>
</g>
		<g transform="matrix(1 0 0 1 -35.4 -17.2)" id="R&#xe8;gle">
<rect style="stroke: rgb(0,150,64); stroke-width: 1; stroke-dasharray: none; stroke-linecap: butt; stroke-dashoffset: 0; stroke-linejoin: miter; stroke-miterlimit: 10; is-custom-font: none; font-file-url: none; fill: none; fill-rule: nonzero; opacity: 1; visibility: hidden;" x="-39.45" y="-125.25" rx="0" ry="0" width="78.9" height="250.5"/>
</g>
</g>
</g>
</svg>