<svg xmlns="http://www.w3.org/2000/svg" xmlns:xlink="http://www.w3.org/1999/xlink" version="1.1" width="1000" height="1000" viewBox="170 310 670 290" xml:space="preserve">
<desc>Created with Fabric.js 3.5.0</desc>
<defs>
</defs>
<rect x="0" y="0" width="100%" height="100%" fill="#ffffff" />
<g transform="matrix(1.0801 0 0 1.0801 265.8269 437.5906)" id="Calque_1">
<path style="stroke: none; stroke-width: 1; stroke-dasharray: none; stroke-linecap: butt; stroke-dashoffset: 0; stroke-linejoin: miter; stroke-miterlimit: 4; is-custom-font: none; font-file-url: none; fill: rgb(25,152,165); fill-rule: nonzero; opacity: 1;" transform=" translate(-204.15, -253.3461)" d="M 203.2 163.7 c 29 -0.5 52.7 22.9 52.7 51.7 h -25 c 0 -15 -12.4 -27.2 -27.6 -26.7 c -14.6 0.4 -25.9 12.8 -25.9 27.3 v 102 c 0 13.8 -11.2 25 -25 25 h 0 V 216.3 C 152.5 188 174.9 164.3 203.2 163.7 z" stroke-linecap="round" />
</g>
<g transform="matrix(1.0801 0 0 1.0801 222.6222 431.2782)" id="Calque_1">
<rect style="stroke: none; stroke-width: 1; stroke-dasharray: none; stroke-linecap: butt; stroke-dashoffset: 0; stroke-linejoin: miter; stroke-miterlimit: 4; is-custom-font: none; font-file-url: none; fill: rgb(248,175,66); fill-rule: nonzero; opacity: 1;" x="-38.25" y="-12.5" rx="0" ry="0" width="76.5" height="25" />
</g>
<g transform="matrix(1.0801 0 0 1.0801 284.7837 488.7402)" id="Calque_1">
<path style="stroke: none; stroke-width: 1; stroke-dasharray: none; stroke-linecap: butt; stroke-dashoffset: 0; stroke-linejoin: miter; stroke-miterlimit: 4; is-custom-font: none; font-file-url: none; fill: rgb(25,152,165); fill-rule: nonzero; opacity: 1;" transform=" translate(-221.7, -300.7)" d="M 188.5 302.8 c 0 -22.3 13.4 -43.8 39.5 -43.8 c 16.1 0 26.9 7.8 26.9 24.1 c 0 21.6 -22.9 26.7 -39.1 27.7 c -0.6 0 -1.1 0.6 -0.9 1.2 c 1.4 6.1 6.2 11.3 15 11.3 c 6.9 0 13.2 -2.9 17.9 -5.9 c 0.6 -0.4 1.3 -0.1 1.5 0.5 l 0 0 c 4.1 10.1 -2 21.5 -12.7 23.5 c -3.2 0.6 -6.6 1 -10.4 1 C 199.2 342.4 188.5 326.1 188.5 302.8 z M 229.7 289.4 c 6.1 -5.3 -1 -15.1 -8.2 -11.3 c -4.5 2.3 -7.3 8 -7.8 15.4 c 0 0.6 0.5 1.2 1.1 1.1 C 220 294.2 226.1 292.5 229.7 289.4 z" stroke-linecap="round" />
</g>
<g transform="matrix(1.0801 0 0 1.0801 355.0564 474.6985)" id="Calque_1">
<path style="stroke: none; stroke-width: 1; stroke-dasharray: none; stroke-linecap: butt; stroke-dashoffset: 0; stroke-linejoin: miter; stroke-miterlimit: 4; is-custom-font: none; font-file-url: none; fill: rgb(25,152,165); fill-rule: nonzero; opacity: 1;" transform=" translate(-286.7594, -287.7002)" d="M 265.5 312.1 v -78 c 0 -0.6 0.5 -1 1 -1 h 23.6 c 0.6 0 1 0.5 1 1 v 78 c 0 6.9 1.8 10.1 6.8 10.1 c 2.1 0 4.8 -0.7 7.9 -2 c 0.6 -0.2 1.2 0 1.4 0.6 l 0 0 c 3.4 10.4 -4.2 21.2 -15.2 21.5 c -0.4 0 -0.8 0 -1.1 0 C 267 342.4 265.5 326.9 265.5 312.1 z" stroke-linecap="round" />
</g>
<g transform="matrix(1.0801 0 0 1.0801 411.007 474.6985)" id="Calque_1">
<path style="stroke: none; stroke-width: 1; stroke-dasharray: none; stroke-linecap: butt; stroke-dashoffset: 0; stroke-linejoin: miter; stroke-miterlimit: 4; is-custom-font: none; font-file-url: none; fill: rgb(25,152,165); fill-rule: nonzero; opacity: 1;" transform=" translate(-338.5594, -287.7002)" d="M 317.3 312.1 v -78 c 0 -0.6 0.5 -1 1 -1 h 23.6 c 0.6 0 1 0.5 1 1 v 78 c 0 6.9 1.8 10.1 6.8 10.1 c 2.1 0 4.8 -0.7 7.9 -2 c 0.6 -0.2 1.2 0 1.4 0.6 l 0 0 c 3.4 10.4 -4.2 21.2 -15.2 21.5 c -0.4 0 -0.8 0 -1.1 0 C 318.8 342.4 317.3 326.9 317.3 312.1 z" stroke-linecap="round" />
</g>
<g transform="matrix(1.0801 0 0 1.0801 479.8546 488.6325)" id="Calque_1">
<path style="stroke: none; stroke-width: 1; stroke-dasharray: none; stroke-linecap: butt; stroke-dashoffset: 0; stroke-linejoin: miter; stroke-miterlimit: 4; is-custom-font: none; font-file-url: none; fill: rgb(25,152,165); fill-rule: nonzero; opacity: 1;" transform=" translate(-402.3, -300.6003)" d="M 365.5 301.2 c 0 -32.3 21.1 -42.3 37.8 -42.3 c 12.1 0 35.8 3.7 35.8 39.8 c 0 28.9 -16.9 43.6 -38.1 43.6 C 379.2 342.4 365.5 329.2 365.5 301.2 z M 412.7 301.1 c 0 -15.7 -2.6 -23.7 -10.4 -23.7 c -7.2 0 -10.4 8.3 -10.4 20.9 c 0 13.4 1.2 25.4 10.4 25.4 C 409.8 323.7 412.7 316.1 412.7 301.1 z" stroke-linecap="round" />
</g>
<g transform="matrix(1.0801 0 0 1.0801 689.6694 488.2001)" id="Calque_1">
<path style="stroke: none; stroke-width: 1; stroke-dasharray: none; stroke-linecap: butt; stroke-dashoffset: 0; stroke-linejoin: miter; stroke-miterlimit: 4; is-custom-font: none; font-file-url: none; fill: rgb(25,152,165); fill-rule: nonzero; opacity: 1;" transform=" translate(-596.55, -300.2)" d="M 560.9 303.7 c 0 -27 14.1 -45.2 41.6 -45.2 c 5.3 0 16.9 1.3 29 5.9 c 0.4 0.2 0.7 0.6 0.7 1 v 57.5 c 0 0 0 0.1 0 0.1 l -0.2 17.8 c 0.1 0.6 -0.4 1.1 -1 1.1 l -11.4 0 c -4.2 0 -7.8 -5.5 -8.5 -9.7 v 0 l -0.8 -0.2 c -4.1 6 -10.4 9.8 -19.2 9.8 C 567.3 341.9 560.9 323.5 560.9 303.7 z M 606.8 314.7 l 0 -36.3 c 0 -0.4 -0.3 -0.8 -0.7 -1 c -1.8 -0.6 -4 -1 -6.4 -1 c -10.1 0 -13.5 12.1 -13.5 25.4 c 0 11.8 2.1 21.7 11.1 21.7 C 603.3 323.5 606.8 319.2 606.8 314.7 z" stroke-linecap="round" />
</g>
<g transform="matrix(1.0801 0 0 1.0801 781.8584 510.3422)" id="Calque_1">
<path style="stroke: none; stroke-width: 1; stroke-dasharray: none; stroke-linecap: butt; stroke-dashoffset: 0; stroke-linejoin: miter; stroke-miterlimit: 4; is-custom-font: none; font-file-url: none; fill: rgb(25,152,165); fill-rule: nonzero; opacity: 1;" transform=" translate(-681.9, -320.7)" d="M 651.7 359.1 c 0 -9.8 4.9 -17.8 13.5 -24.8 c 0.7 -0.6 0.4 -1.6 -0.4 -1.8 c -11.6 -2.9 -17 -10.3 -17 -24 V 262 c 0 -0.6 0.5 -1 1 -1 h 23.6 c 0.6 0 1 0.5 1 1 v 45.4 c 0 6.9 0.6 11.4 8 11.4 c 4.3 0 8.8 -4 8.8 -10.5 V 262 c 0 -0.6 0.5 -1 1 -1 l 0 0 c 13.7 0 24.8 11.1 24.8 24.8 v 36.5 c 0 4.1 -0.3 16.8 -0.9 21.4 c -1.8 23.7 -14 36.7 -36.6 36.7 C 660.8 380.4 651.7 372.2 651.7 359.1 z M 690.7 347.2 l 0 -13.3 c 0 -0.8 -0.9 -1.3 -1.6 -0.9 c -7.6 4.5 -15.2 11.6 -15.2 21.4 c 0 5.2 2.8 7.5 7.4 7.5 C 688.3 361.9 690.7 356.7 690.7 347.2 z" stroke-linecap="round" />
</g>
<g transform="matrix(1.0801 0 0 1.0801 590.9183 484.5276)" id="Calque_1">
<path style="stroke: none; stroke-width: 1; stroke-dasharray: none; stroke-linecap: butt; stroke-dashoffset: 0; stroke-linejoin: miter; stroke-miterlimit: 4; is-custom-font: none; font-file-url: none; fill: rgb(25,152,165); fill-rule: nonzero; opacity: 1;" transform=" translate(-507.05, -296.8)" d="M 446.6 315.6 v -65 h 25.2 v 63.2 c 0 5.9 0.6 10 6.3 10 c 4.8 0 8 -4.1 8 -9.7 v -50.3 h 24.9 v 50 c 0 5.4 0.3 10 6 10 c 8.2 0 10.1 -12.5 10.1 -24.9 c 0 -3.8 0.3 -11.5 0.6 -15.6 c 2.3 -28.4 39.8 -22.1 39.8 -22.1 c -11 8.2 -16 18.7 -15.6 40.5 c 1.3 30.1 -11.3 41.3 -34 41.3 c -11.2 0 -16.9 -4.4 -20.7 -10.4 c -6.2 7.4 -13.9 10.4 -23.4 10.4 C 456.4 342.9 446.6 334 446.6 315.6 z" stroke-linecap="round" />
</g>
</svg>